<svg width="176" height="176" viewBox="0 0 176 176" fill="none" xmlns="http://www.w3.org/2000/svg">
<circle cx="88" cy="88" r="69.8182" stroke="#F3F3F5" stroke-width="36.3636"/>
<path d="M43.8951 130.047V147.84L37.9634 145.402V127.609L40.6753 128.725L43.8951 130.047Z" fill="#A1503B"/>
<path d="M67.7782 124.01L43.8951 130.047L40.6753 128.725L37.9634 127.61L61.3726 121.954L64.0533 122.814V122.816L67.7782 124.01Z" fill="#A1503B"/>
<g opacity="0.6">
<path d="M64.0533 122.814V122.816L39.9039 128.92L37.9634 139.212V127.61L61.3726 121.954L64.0533 122.814Z" fill="white"/>
</g>
<path d="M67.778 124.01V141.012L43.8949 147.84V130.047L67.778 124.01Z" fill="#A1503B"/>
<path d="M43.8944 148.739C43.7791 148.739 43.6628 148.717 43.5532 148.671L37.6219 146.233C37.2851 146.095 37.0654 145.766 37.0654 145.402V127.609C37.0654 127.309 37.2149 127.03 37.4633 126.863C37.7123 126.696 38.0275 126.665 38.3048 126.778L44.2361 129.217C44.573 129.355 44.7926 129.683 44.7926 130.047V147.841C44.7926 148.14 44.6431 148.42 44.3947 148.586C44.2447 148.687 44.0703 148.738 43.8949 148.738L43.8944 148.739ZM38.8613 144.8L42.9962 146.501V130.649L38.8613 128.949V144.8Z" fill="#301A1A"/>
<path d="M43.8946 130.945C43.7783 130.945 43.662 130.922 43.5529 130.878L37.6217 128.439C37.2617 128.291 37.0378 127.928 37.0676 127.54C37.0974 127.152 37.3737 126.827 37.7519 126.736L61.1602 121.081C61.3207 121.043 61.4885 121.049 61.6456 121.099L68.0512 123.155C68.4328 123.277 68.687 123.638 68.6745 124.038C68.662 124.438 68.3857 124.782 67.9969 124.881L44.1143 130.918C44.0417 130.936 43.9682 130.945 43.8941 130.945H43.8946ZM40.8665 127.831L43.9619 129.103L64.519 123.907L61.3376 122.886L40.8665 127.831Z" fill="#301A1A"/>
<path d="M43.8951 148.738C43.7024 148.738 43.5121 148.676 43.3545 148.557C43.1296 148.388 42.9974 148.122 42.9974 147.84V130.047C42.9974 129.636 43.2766 129.277 43.6755 129.176L67.5581 123.139C67.8268 123.071 68.1113 123.131 68.33 123.301C68.5486 123.471 68.6764 123.733 68.6764 124.009V141.012C68.6764 141.413 68.4107 141.765 68.0253 141.876L44.1426 148.703C44.0614 148.726 43.9783 148.738 43.8956 148.738L43.8951 148.738ZM44.7933 130.747V146.65L66.8801 140.336V125.164L44.7933 130.747Z" fill="#301A1A"/>
<g opacity="0.6">
<path d="M67.778 124.01L67.7756 124.013C67.6564 124.093 63.8604 126.664 61.9429 127.232C59.9941 127.809 49.0245 130.582 49.0245 130.582L53.8135 134.234L43.8949 130.047L67.778 124.01Z" fill="white"/>
</g>
<path d="M57.2341 136.402C56.8506 136.402 56.4623 136.326 56.0899 136.169L53.4698 135.064C53.463 135.061 53.4558 135.058 53.4491 135.055L43.5464 130.874C43.1908 130.724 42.9711 130.364 43 129.979C43.0293 129.594 43.3013 129.271 43.6752 129.176L67.5583 123.139C67.9519 123.04 68.3632 123.217 68.5617 123.57C68.7496 123.905 68.703 124.32 68.4517 124.604L59.4731 135.349C58.9017 136.033 58.0799 136.402 57.2341 136.402V136.402ZM54.1834 133.416L56.7876 134.514C57.2485 134.709 57.7738 134.582 58.0948 134.198L65.313 125.56L46.7124 130.262L54.1637 133.407C54.1704 133.41 54.1772 133.413 54.1839 133.416H54.1834Z" fill="#301A1A"/>
<path d="M47.588 126.365C47.575 126.232 47.4774 125.025 48.0392 123.629C48.5693 122.312 49.8001 120.59 52.6513 119.871C54.5241 119.399 56.0816 119.585 57.2797 120.425C59.0367 121.656 59.277 123.828 59.2866 123.92L57.4998 124.102V124.107C57.4989 124.092 57.322 122.638 56.2378 121.888C55.4867 121.368 54.4275 121.276 53.0901 121.612C49.1157 122.614 49.3632 126.05 49.3757 126.195V126.19L47.5875 126.364L47.588 126.365Z" fill="#301A1A"/>
<g opacity="0.2">
<path d="M67.7782 135.925V141.012L43.8951 147.84L37.9634 145.402V127.609C37.9634 127.609 39.0524 140.15 43.8951 141.161C43.8951 141.161 56.4025 146.297 67.7782 135.925V135.925Z" fill="#301A1A"/>
</g>
<path d="M123.164 97.9648C120.052 100.523 115.864 100.71 113.276 99.4555C115.139 103.756 115.768 108.92 115.702 114.203C115.687 115.276 115.64 116.552 115.55 117.972C115.449 119.574 115.296 121.355 115.084 123.237C114.526 128.18 113.564 133.804 112.063 138.55C110.296 144.138 107.787 148.517 104.313 149.159C99.0721 150.129 96.2406 144.846 94.833 140.62C93.9473 137.958 93.7517 131.708 93.7517 131.708H86.3364C86.3364 131.708 85.8924 137.958 85.0091 140.62H85.0067C83.5996 144.846 80.7675 150.129 75.5269 149.159C72.9092 148.675 70.8278 145.203 69.1992 140.622C67.5532 135.994 66.3671 130.234 65.5602 125.274C65.1027 122.467 64.7683 119.918 64.539 117.974V117.972C64.2637 115.657 64.1406 114.203 64.1406 114.203C64.1406 114.203 61.2841 116.146 57.8201 117.999V118.001C53.2561 120.442 47.6367 122.73 46.109 120.213C44.9897 118.37 47.5137 113.927 51.1377 109.067C56.2232 102.252 63.4789 94.6205 65.8798 92.219C67.9737 90.1228 70.6822 89.547 72.8376 89.4879C74.9141 89.4264 76.4765 89.8445 76.4765 89.8445L89.9196 89.4802C89.9196 89.4802 98.0192 88.8478 102.046 89.5197L112.527 83.61C112.478 83.2929 112.436 82.9829 112.399 82.6801C111.243 73.0946 115.869 69.8151 119.707 70.2332C123.301 70.6244 123.328 76.1751 123.79 79.7472C123.899 80.5617 123.985 81.2898 124.083 81.8583C124.612 84.9167 127.862 94.101 123.163 97.9638L123.164 97.9648Z" fill="white"/>
<g opacity="0.2">
<path d="M100.596 93.3941C100.596 93.3941 98.7573 106.137 89.611 109.047C80.4648 111.958 74.682 93.1567 74.682 93.1567L100.595 93.3937L100.596 93.3941Z" fill="#301A1A"/>
</g>
<path d="M103.082 150.173C102.175 150.173 101.302 150.001 100.474 149.658C99.3899 149.208 98.3773 148.46 97.4642 147.435C96.0773 145.877 94.9052 143.68 93.9805 140.903C93.2582 138.732 92.9795 134.449 92.8896 132.605H87.165C87.0093 134.425 86.5811 138.731 85.8608 140.902C85.8536 140.924 85.8459 140.944 85.8372 140.965C84.916 143.713 83.751 145.889 82.3742 147.435C81.4611 148.46 80.4485 149.208 79.3644 149.658C78.1202 150.174 76.7736 150.303 75.3626 150.042C73.8868 149.769 72.5046 148.726 71.2556 146.942C70.2262 145.472 69.2492 143.447 68.352 140.923C66.9377 136.946 65.6997 131.729 64.6727 125.418C64.2844 123.037 63.9394 120.567 63.6462 118.079C63.6453 118.072 63.6448 118.065 63.6438 118.058C63.5362 117.154 63.4516 116.378 63.3886 115.768C62.2319 116.507 60.3841 117.643 58.2965 118.762C58.2787 118.773 58.2609 118.784 58.2426 118.794C55.4087 120.309 52.989 121.332 51.0508 121.836C49.7735 122.168 48.7201 122.275 47.8296 122.164C46.4095 121.987 45.692 121.259 45.3402 120.68C44.6395 119.526 44.8668 117.793 46.0351 115.381C46.929 113.535 48.4034 111.231 50.4165 108.531C55.5288 101.68 62.8528 93.9758 65.2436 91.5849C67.1155 89.7112 69.7327 88.6755 72.8117 88.5914C74.6639 88.5366 76.1301 88.8408 76.5722 88.9446L89.8716 88.5842C90.431 88.541 97.7795 87.9936 101.875 88.5857L111.55 83.1307C111.535 83.0196 111.521 82.9062 111.507 82.7899C110.73 76.3493 112.507 73.0357 114.134 71.3897C115.646 69.8606 117.712 69.1142 119.803 69.342C121.538 69.5309 122.794 70.6795 123.536 72.756C124.116 74.3784 124.325 76.3627 124.509 78.1135C124.566 78.6522 124.619 79.1606 124.68 79.6335C124.707 79.8344 124.733 80.0329 124.757 80.2246C124.832 80.8008 124.896 81.2987 124.968 81.7067C125.047 82.1647 125.197 82.7952 125.371 83.5257C125.857 85.5619 126.521 88.3502 126.565 91.1043C126.619 94.528 125.666 97.0697 123.732 98.6595C122.145 99.9642 120.207 100.785 118.128 101.033C116.98 101.17 115.843 101.124 114.795 100.906C116.057 104.596 116.663 109.062 116.598 114.215C116.581 115.406 116.53 116.69 116.444 118.03C116.335 119.747 116.178 121.533 115.975 123.338C115.508 127.466 114.6 133.503 112.918 138.822C110.765 145.63 107.924 149.406 104.474 150.043C104.002 150.131 103.537 150.175 103.081 150.175L103.082 150.173ZM65.433 117.89C65.7223 120.344 66.063 122.78 66.446 125.13C67.4557 131.335 68.6663 136.446 70.0446 140.321C71.765 145.16 73.7171 147.911 75.6899 148.276C80.2217 149.114 82.7937 144.421 84.1538 140.336C84.16 140.317 84.1672 140.297 84.1749 140.279C85.0001 137.72 85.4355 131.705 85.4398 131.644C85.4734 131.174 85.8641 130.809 86.3356 130.809H93.7508C94.2357 130.809 94.6332 131.194 94.6485 131.679C94.6505 131.74 94.8504 137.829 95.6842 140.336C97.0442 144.421 99.6167 149.114 104.149 148.276C106.856 147.776 109.296 144.319 111.206 138.279C112.845 133.098 113.734 127.184 114.191 123.136C114.391 121.361 114.546 119.604 114.652 117.915C114.736 116.603 114.787 115.35 114.803 114.19C114.875 108.421 114.084 103.583 112.451 99.8123C112.301 99.4678 112.383 99.067 112.654 98.807C112.925 98.547 113.329 98.4836 113.667 98.6474C115.934 99.7465 119.728 99.6264 122.592 97.2711C124.103 96.0293 124.815 94.0214 124.77 91.1322C124.729 88.5746 124.09 85.8968 123.624 83.9419C123.443 83.1821 123.287 82.5261 123.198 82.0128C123.121 81.5674 123.054 81.0522 122.977 80.4553C122.952 80.2655 122.927 80.0689 122.9 79.8671C122.836 79.3697 122.781 78.8507 122.723 78.3009C122.311 74.3837 121.821 71.3681 119.609 71.1274C118.065 70.9592 116.536 71.5152 115.412 72.6522C114.063 74.017 112.599 76.8457 113.291 82.5737C113.329 82.8933 113.37 83.1883 113.414 83.4738C113.472 83.8433 113.294 84.21 112.968 84.3936L102.487 90.3032C102.308 90.4041 102.101 90.4407 101.898 90.4066C98.026 89.7607 90.0692 90.3705 89.9894 90.3768C89.974 90.3777 89.9591 90.3787 89.9437 90.3792L76.5006 90.7434C76.4146 90.7463 76.3276 90.7357 76.244 90.7132C76.231 90.7098 74.7701 90.3292 72.8641 90.3869C70.2137 90.4594 68.0781 91.2899 66.5152 92.8546C64.1499 95.22 56.9057 102.84 51.8572 109.605C46.1596 117.245 46.6041 119.3 46.8761 119.748C47.447 120.688 49.216 120.457 50.6001 120.098C52.3892 119.633 54.6576 118.672 57.343 117.238C57.3603 117.227 57.3781 117.217 57.3963 117.208C60.7791 115.398 63.6073 113.48 63.6352 113.461C63.899 113.281 64.2383 113.255 64.5266 113.392C64.815 113.53 65.0086 113.81 65.0356 114.128C65.037 114.142 65.161 115.596 65.4311 117.867C65.432 117.874 65.433 117.882 65.4335 117.89L65.433 117.89Z" fill="#301A1A"/>
<path d="M115.544 117.965C115.443 119.566 115.291 121.346 115.081 123.23C115.051 123.486 115.023 123.744 114.991 124.002H114.989C114.422 128.75 113.486 134.042 112.064 138.542C110.301 144.131 107.793 148.512 104.318 149.155C99.0781 150.127 96.2451 144.845 94.836 140.618C93.9484 137.956 93.7509 131.708 93.7509 131.708L86.3356 131.71C86.3356 131.71 85.8954 137.959 85.0117 140.622H85.0093C83.6031 144.85 80.774 150.133 75.5333 149.165C72.9156 148.681 70.8328 145.211 69.2013 140.629C67.6528 136.279 66.5105 130.927 65.7051 126.181C65.6556 125.88 65.6061 125.58 65.5566 125.283C65.0976 122.477 64.7622 119.927 64.5325 117.985V117.982C64.5325 117.982 82.3358 124.114 115.543 117.964L115.544 117.965Z" fill="#3838AD"/>
<g opacity="0.2">
<path d="M88.9817 131.709L86.3347 131.71C86.3347 131.71 85.8945 137.959 85.0107 140.621H85.0083C83.6021 144.85 80.773 150.133 75.5323 149.165C72.9146 148.681 70.8318 145.211 69.2003 140.629C67.6519 136.279 66.5095 130.927 65.7041 126.181C65.8858 125.741 65.991 125.483 65.991 125.483L69.195 126.829C69.195 126.829 70.3133 140.158 76.184 140.156C82.0528 140.154 82.9678 131.696 82.9678 131.696L88.9778 131.694L88.9802 131.71L88.9817 131.709Z" fill="#301A1A"/>
</g>
<g opacity="0.2">
<path d="M114.992 124.01C114.482 128.527 113.697 133.206 112.062 138.55C110.347 144.153 107.787 148.518 104.312 149.16C99.0717 150.129 96.2406 144.847 94.833 140.619C93.9464 137.957 93.7508 131.709 93.7508 131.709H90.5179L96.1666 131.522C96.1666 131.522 96.0027 138.549 103.447 138.549C110.892 138.549 110.815 125.431 110.815 125.431L114.991 124.01H114.992Z" fill="#301A1A"/>
</g>
<path d="M103.082 150.173C102.175 150.173 101.302 150.001 100.474 149.658C99.3901 149.208 98.3775 148.46 97.4644 147.435C96.0775 145.878 94.9053 143.68 93.9807 140.903C93.2584 138.732 92.9797 134.45 92.8898 132.606H87.1652C87.0095 134.425 86.5813 138.731 85.8609 140.902C85.8537 140.923 85.846 140.944 85.8374 140.965C84.9161 143.713 83.7512 145.89 82.3744 147.435C81.4613 148.46 80.4487 149.208 79.3645 149.658C78.1203 150.174 76.7738 150.303 75.3628 150.042C73.8869 149.769 72.5048 148.726 71.2558 146.942C70.2264 145.472 69.2494 143.447 68.3522 140.923C66.9378 136.946 65.6999 131.729 64.6729 125.419C64.2846 123.037 63.9395 120.568 63.6464 118.08C63.6425 118.045 63.6401 118.01 63.6401 117.975C63.6401 117.685 63.7805 117.411 64.0169 117.243C64.2534 117.074 64.5566 117.029 64.831 117.123C64.8743 117.138 69.3359 118.644 77.7594 119.388C85.537 120.075 98.3775 120.233 115.385 117.089C115.657 117.039 115.937 117.117 116.144 117.3C116.351 117.484 116.462 117.752 116.444 118.029C116.336 119.747 116.178 121.533 115.975 123.338C115.509 127.465 114.6 133.502 112.918 138.821C110.765 145.63 107.925 149.405 104.475 150.043C104.002 150.13 103.537 150.174 103.081 150.174L103.082 150.173ZM65.5951 119.219C65.8469 121.223 66.1324 123.206 66.4462 125.13C67.4559 131.334 68.6665 136.445 70.0448 140.321C71.7652 145.16 73.7173 147.911 75.6901 148.276C80.2219 149.114 82.7939 144.421 84.1539 140.336C84.1602 140.316 84.1674 140.297 84.1751 140.279C85.0002 137.72 85.4356 131.704 85.4399 131.644C85.4736 131.174 85.8643 130.81 86.3357 130.81H93.751C94.2359 130.81 94.6333 131.195 94.6487 131.679C94.6506 131.741 94.8506 137.829 95.6844 140.336C97.0444 144.421 99.6174 149.115 104.149 148.276C106.856 147.776 109.297 144.319 111.206 138.28C112.845 133.098 113.734 127.185 114.191 123.136C114.346 121.759 114.474 120.393 114.573 119.062C107.355 120.349 100.308 121.155 93.6088 121.459C87.9606 121.715 82.544 121.618 77.5105 121.169C71.5129 120.634 67.5256 119.737 65.5951 119.22V119.219Z" fill="#301A1A"/>
<path d="M85.0063 140.62C83.5991 144.846 80.7671 150.129 75.5265 149.159C72.9088 148.675 70.8274 145.203 69.1987 140.622C69.3564 140.782 75.1675 146.549 85.0063 140.62Z" fill="#301A1A"/>
<path d="M76.7576 150.173C76.3011 150.173 75.8359 150.13 75.3635 150.042C73.8876 149.769 72.5055 148.726 71.2565 146.942C70.2271 145.472 69.2501 143.447 68.3529 140.923C68.2116 140.526 68.3654 140.085 68.7224 139.861C69.0795 139.637 69.5437 139.691 69.8393 139.992C69.8527 140.006 71.2296 141.379 73.7141 142.039C77.0291 142.919 80.6724 142.183 84.5429 139.85C84.8654 139.656 85.2739 139.683 85.5675 139.918C85.8611 140.153 85.9774 140.546 85.8583 140.902C84.9336 143.68 83.7615 145.877 82.3746 147.434C81.4615 148.46 80.4489 149.207 79.3647 149.657C78.5372 150 77.664 150.173 76.7571 150.173L76.7576 150.173ZM71.108 142.981C72.5507 146.169 74.114 147.984 75.6907 148.276C79.4142 148.965 81.8142 145.92 83.3064 142.546C81.6931 143.3 80.0976 143.797 78.542 144.032C76.7072 144.308 74.9238 144.22 73.2413 143.772C72.4272 143.554 71.7154 143.275 71.108 142.981Z" fill="#301A1A"/>
<path d="M112.063 138.551C110.296 144.138 107.787 148.517 104.312 149.16C99.0718 150.129 96.2402 144.847 94.8326 140.62C94.8326 140.62 103.995 146.134 112.062 138.551H112.063Z" fill="#301A1A"/>
<path d="M103.082 150.173C102.175 150.173 101.302 150.001 100.475 149.658C99.3905 149.208 98.378 148.46 97.4649 147.435C96.078 145.877 94.9058 143.68 93.9812 140.903C93.8625 140.546 93.9783 140.153 94.272 139.918C94.5656 139.683 94.9741 139.656 95.2965 139.85C95.3172 139.862 97.5154 141.158 100.605 141.546C104.678 142.059 108.325 140.831 111.448 137.896C111.745 137.616 112.194 137.573 112.541 137.79C112.887 138.008 113.042 138.431 112.919 138.821C110.766 145.629 107.926 149.405 104.476 150.042C104.003 150.13 103.538 150.174 103.082 150.174L103.082 150.173ZM96.448 142.349C97.9335 145.8 100.355 148.978 104.15 148.276C106.393 147.862 108.452 145.419 110.178 141.16C108.922 141.961 107.593 142.556 106.206 142.939C104.327 143.457 102.342 143.584 100.307 143.319C98.7759 143.119 97.4538 142.728 96.4475 142.35L96.448 142.349Z" fill="#301A1A"/>
<path d="M93.6291 132.592H93.6272C93.1312 132.592 92.7295 132.19 92.7295 131.694C92.7295 131.198 93.1317 130.796 93.6272 130.796C94.5475 130.796 97.1772 130.664 98.2772 130.063C98.7126 129.826 99.2581 129.986 99.4955 130.422C99.7329 130.857 99.5729 131.402 99.1375 131.64C97.442 132.565 94.0222 132.592 93.6286 132.592H93.6291Z" fill="#301A1A"/>
<path d="M85.8662 132.592C84.9118 132.592 82.4316 132.474 80.6361 131.341C80.2166 131.076 80.0916 130.521 80.3564 130.102C80.6212 129.683 81.1758 129.557 81.5954 129.822C83.0414 130.735 85.3852 130.831 86.1661 130.791C86.6611 130.765 87.0835 131.146 87.109 131.641C87.1345 132.137 86.7534 132.559 86.2584 132.584C86.2319 132.586 86.0916 132.592 85.8667 132.592H85.8662Z" fill="#301A1A"/>
<path d="M73.8389 33.4926L70.0299 37.4035L57.6022 50.145V50.1474L55.0067 52.8055C54.5362 51.7612 52.8628 41.6254 53.1343 33.2504C53.1752 32.0067 53.2583 30.8024 53.3938 29.672C53.8509 25.9053 54.8961 22.9603 56.9136 22.1559C60.4141 20.7588 64.8704 23.9071 68.3311 27.2375C69.2691 28.1385 70.1332 29.055 70.8863 29.897C70.8882 29.8994 70.8906 29.8998 70.8906 29.8998C72.6827 31.9062 73.8394 33.4926 73.8394 33.4926H73.8389Z" fill="#FD9800"/>
<g opacity="0.6">
<path d="M70.8858 29.8972C70.5927 29.6708 54.9745 16.888 53.3929 29.6718C53.85 25.905 54.8952 22.9601 56.9127 22.1556C61.3633 20.3808 67.3546 25.9473 70.8858 29.8972Z" fill="white"/>
</g>
<path d="M55.0068 53.7049C54.9544 53.7049 54.902 53.7005 54.8496 53.6909C54.557 53.639 54.309 53.4453 54.1874 53.1743C53.7842 52.2756 52.8865 47.0739 52.4525 41.281C52.0585 36.025 51.9441 28.8837 53.6338 24.7084C54.3417 22.9592 55.3336 21.8197 56.5812 21.3218C58.3578 20.613 60.445 20.8393 62.7854 21.9932C64.5462 22.8616 66.4704 24.2654 68.5047 26.1651C71.9206 29.3556 74.4585 32.8191 74.5647 32.9647C74.8228 33.3184 74.7877 33.8072 74.4821 34.1205L70.6716 38.0295L58.279 50.7363C58.2675 50.7493 58.256 50.7623 58.2435 50.7748L55.6488 53.4338C55.4782 53.6083 55.2461 53.7044 55.0063 53.7044L55.0068 53.7049ZM58.7461 22.7136C58.2257 22.7136 57.723 22.7996 57.2472 22.9899C56.4865 23.2936 55.8411 24.0746 55.3283 25.3111C54.0951 28.2858 53.7068 33.8711 54.236 41.0379C54.5584 45.4039 55.1159 49.087 55.4917 51.0247L56.9243 49.5565C56.9353 49.5436 56.9474 49.5311 56.9594 49.5186L69.3865 36.7761L72.6568 33.4213C71.7822 32.2943 69.7374 29.7708 67.2619 27.4617C64.8187 25.1823 61.5291 22.7141 58.7461 22.7141V22.7136Z" fill="#301A1A"/>
<path d="M57.6019 50.1452L70.0291 37.4028C70.0291 37.4028 61.3028 27.4803 58.6246 28.5299C55.9622 29.5713 57.5803 49.877 57.6019 50.1447V50.1452Z" fill="#F4536E"/>
<path d="M57.6016 51.0434C57.4992 51.0434 57.3964 51.0261 57.2969 50.99C56.9658 50.8704 56.7346 50.5681 56.7068 50.2168C56.6895 50.0005 56.2829 44.8646 56.2089 39.6408C56.1652 36.5675 56.2449 34.0685 56.4458 32.213C56.7462 29.4358 57.3003 28.0844 58.2975 27.6942C59.2197 27.3328 60.4053 27.6596 62.0286 28.7231C63.1282 29.4435 64.4459 30.5181 65.9444 31.917C68.464 34.2694 70.6136 36.7079 70.7035 36.8102C71.0135 37.1625 70.9995 37.6945 70.6723 38.0304L58.2451 50.7728C58.073 50.9492 57.84 51.0439 57.6021 51.0439L57.6016 51.0434ZM58.9804 29.3584C58.8876 29.4589 58.4397 30.0803 58.1841 32.8777C58.0183 34.6938 57.9596 37.0957 58.0106 40.0171C58.0649 43.1351 58.2326 46.1766 58.3561 48.0855L68.798 37.3787C67.9964 36.5007 66.423 34.8211 64.7093 33.2213C60.4807 29.2748 59.1836 29.3166 58.9804 29.3584Z" fill="#301A1A"/>
<g opacity="0.2">
<path d="M73.839 33.4925L70.0299 37.4034L57.6023 50.1448V50.1472L55.0067 52.8053C54.5362 51.761 53.1118 44.5063 53.1099 35.9237C64.1597 38.4919 68.3306 27.2392 68.3306 27.2392V27.2368C69.2692 28.1379 70.1328 29.0543 70.8863 29.8963C70.8882 29.8987 70.8906 29.8992 70.8906 29.8992C72.6827 31.9056 73.8394 33.492 73.8394 33.492L73.839 33.4925Z" fill="#301A1A"/>
</g>
<path d="M101.676 32.1185L105.24 36.2534L116.871 49.7263V49.7287L119.301 52.5396C119.834 51.5255 122.12 41.5104 122.358 33.134C122.393 31.8902 122.383 30.6825 122.316 29.5465C122.089 25.7591 121.225 22.756 119.259 21.8304C115.85 20.2233 111.211 23.0948 107.554 26.2089C106.563 27.0513 105.645 27.914 104.842 28.7083C104.84 28.7108 104.837 28.7108 104.837 28.7108C102.926 30.6047 101.676 32.118 101.676 32.118L101.676 32.1185Z" fill="#FD9800"/>
<g opacity="0.6">
<path d="M104.842 28.7091C105.149 28.501 121.515 16.6904 122.317 29.5472C122.089 25.7598 121.225 22.7567 119.26 21.8311C114.926 19.7892 108.607 24.9813 104.842 28.7091Z" fill="white"/>
</g>
<path d="M119.3 53.4385C119.041 53.4385 118.792 53.326 118.62 53.1275L116.192 50.3162C116.18 50.3032 116.17 50.2897 116.159 50.2758L104.561 36.8399L100.995 32.7065C100.709 32.3749 100.704 31.8852 100.983 31.5478C101.098 31.4085 103.841 28.106 107.445 25.1288C109.591 23.356 111.597 22.0719 113.407 21.3121C115.813 20.3024 117.911 20.2034 119.641 21.0189C120.856 21.5918 121.776 22.7894 122.377 24.5781C123.81 28.848 123.262 35.9696 122.55 41.192C121.764 46.9478 120.552 52.0857 120.095 52.9579C119.957 53.2212 119.698 53.3991 119.403 53.4332C119.368 53.437 119.334 53.4389 119.3 53.4389L119.3 53.4385ZM117.583 49.1796L118.925 50.7324C119.418 48.8211 120.198 45.1788 120.785 40.8402C121.748 33.7191 121.7 28.1204 120.649 25.0764C120.213 23.8111 119.616 22.9922 118.875 22.6428C115.931 21.2554 111.666 23.9735 108.607 26.498C105.996 28.6524 103.802 31.0466 102.86 32.1187L105.921 35.6663L117.551 49.1397C117.562 49.1527 117.573 49.1662 117.583 49.1796Z" fill="#301A1A"/>
<path d="M116.871 49.7267L105.241 36.2529C105.241 36.2529 114.554 26.8788 117.164 28.0894C119.758 29.2908 116.909 49.4605 116.872 49.7267H116.871Z" fill="#F4536E"/>
<path d="M116.872 50.6246C116.614 50.6246 116.365 50.5141 116.192 50.3132L104.562 36.8394C104.255 36.4842 104.274 35.9527 104.604 35.6197C104.701 35.5226 106.994 33.2197 109.652 31.0244C111.233 29.7192 112.613 28.7263 113.755 28.0742C115.439 27.1116 116.643 26.8574 117.542 27.274C118.513 27.7238 118.984 29.1065 119.115 31.8967C119.203 33.7613 119.131 36.2603 118.901 39.3254C118.509 44.5358 117.791 49.6371 117.761 49.8519C117.712 50.2008 117.463 50.4886 117.125 50.5876C117.041 50.6122 116.956 50.6242 116.872 50.6242V50.6246ZM106.471 36.3035L116.243 47.6249C116.482 45.7276 116.835 42.7014 117.078 39.5926C117.306 36.6798 117.394 34.2784 117.339 32.4561C117.254 29.649 116.844 29.0017 116.758 28.895C116.556 28.8412 115.264 28.7215 110.804 32.4027C108.996 33.8954 107.324 35.4765 106.47 36.304L106.471 36.3035Z" fill="#301A1A"/>
<g opacity="0.2">
<path d="M101.676 32.1186L105.24 36.2535L116.871 49.7264V49.7288L119.301 52.5397C119.834 51.5256 121.696 44.3708 122.219 35.8046C111.034 37.6966 107.554 26.2114 107.554 26.2114V26.209C106.563 27.0514 105.645 27.9141 104.842 28.7085C104.84 28.7109 104.837 28.7109 104.837 28.7109C102.926 30.6048 101.676 32.1181 101.676 32.1181L101.676 32.1186Z" fill="#301A1A"/>
</g>
<path d="M144.101 82.9591C144.101 84.3196 142.999 85.4196 141.641 85.4196C139.021 85.4196 136.861 88.318 134.8 94.8379H134.797C134.025 97.2807 133.266 100.235 132.503 103.735C131.085 110.237 127.385 115.493 121.808 118.928C117.629 121.501 113.838 122.149 113.676 122.176C113.541 122.199 113.406 122.21 113.274 122.21C112.088 122.21 111.047 121.355 110.847 120.149C110.625 118.811 111.532 117.547 112.867 117.322C113.209 117.264 118.206 116.334 122.414 112.307C122.416 112.307 122.416 112.304 122.418 112.304C124.699 110.125 126.744 107.035 127.696 102.684C128.506 98.9641 129.292 95.8952 130.098 93.3404C130.907 90.79 131.73 88.7471 132.622 87.0632C134.925 82.7077 137.961 80.4985 141.64 80.4985C142.343 80.4985 142.976 80.7926 143.425 81.2665C143.843 81.7067 144.101 82.3016 144.101 82.9591H144.101Z" fill="#FD9800"/>
<path d="M144.102 82.9596C144.102 84.3201 142.999 85.4201 141.641 85.4201C139.021 85.4201 136.861 88.3185 134.801 94.8384H134.799C130.646 96.9813 130.1 93.3501 130.1 93.3501V93.3405C130.907 90.7915 131.731 88.7471 132.622 87.0642C134.927 82.7092 137.961 80.5 141.641 80.5C143 80.5 144.102 81.6024 144.102 82.9605L144.102 82.9596Z" fill="#BA6B47"/>
<g opacity="0.6">
<path d="M143.426 81.266L143.423 81.2684C143.423 81.2684 137.794 82.2738 135.405 86.3346C127.899 99.0891 131.363 109.738 122.418 112.304C124.699 110.124 126.745 107.035 127.697 102.684C128.507 98.9641 129.293 95.8952 130.099 93.3404C130.907 90.79 131.731 88.7471 132.622 87.0632C134.926 82.7077 137.961 80.4985 141.641 80.4985C142.344 80.4985 142.977 80.7926 143.426 81.2665V81.266Z" fill="white"/>
</g>
<path d="M113.273 123.107C111.624 123.107 110.231 121.925 109.962 120.296C109.661 118.474 110.898 116.742 112.719 116.437C112.839 116.416 115.784 115.89 118.984 113.856C123.109 111.233 125.745 107.41 126.819 102.492C127.648 98.6933 128.441 95.6114 129.244 93.0692C130.062 90.4856 130.907 88.3841 131.828 86.6429C133.04 84.3535 134.474 82.597 136.088 81.422C137.748 80.2138 139.617 79.6011 141.642 79.6011C143.493 79.6011 145 81.1077 145 82.9593C145 84.811 143.493 86.3176 141.642 86.3176C139.484 86.3176 137.527 89.1929 135.659 95.1082C135.652 95.1289 135.645 95.1496 135.637 95.1698C134.88 97.5702 134.142 100.435 133.382 103.926C131.908 110.675 128.069 116.127 122.28 119.692C118.06 122.291 114.248 122.991 113.828 123.062C113.826 123.062 113.824 123.063 113.822 123.063C113.645 123.092 113.46 123.107 113.274 123.107H113.273ZM141.641 81.397C138.321 81.397 135.553 83.4447 133.415 87.4835C132.544 89.1275 131.74 91.132 130.955 93.6108C130.169 96.0997 129.39 99.1307 128.573 102.875C125.737 115.865 113.538 118.118 113.02 118.208C112.168 118.35 111.592 119.155 111.733 120.003C111.858 120.761 112.506 121.311 113.273 121.311C113.361 121.311 113.447 121.304 113.529 121.291C113.716 121.259 117.357 120.613 121.337 118.162C126.701 114.859 130.258 109.803 131.625 103.542C132.404 99.9683 133.162 97.0325 133.942 94.5666C133.948 94.5455 133.955 94.5248 133.964 94.5046C135.021 91.169 136.108 88.7642 137.285 87.1533C138.561 85.4064 140.027 84.5212 141.64 84.5212C142.502 84.5212 143.203 83.8205 143.203 82.9588C143.203 82.0972 142.502 81.3965 141.64 81.3965L141.641 81.397Z" fill="#301A1A"/>
<path d="M125.591 92.9206V92.923C125.376 94.903 124.688 96.7147 123.164 97.9657C120.052 100.525 115.865 100.711 113.277 99.4564C115.138 103.758 115.769 108.922 115.701 114.204C115.672 116.485 115.483 119.684 115.084 123.239H115.081C113.907 124.348 112.416 125.033 110.816 125.432H110.813C105.535 126.752 99.0939 124.96 99.0939 124.96C97.3538 111.988 102.046 89.522 102.046 89.522L112.528 83.6128C112.479 83.2942 112.436 82.9843 112.401 82.681C115.696 83.2937 118.179 82.9482 119.971 82.3129C119.973 82.3129 119.978 82.3105 119.982 82.3086C120.77 82.0279 121.423 81.691 121.953 81.3546C123.186 80.5732 123.754 79.799 123.788 79.7514L123.79 79.749C123.9 80.5641 123.985 81.2912 124.084 81.8592C124.441 83.9271 126.042 88.7896 125.591 92.9206Z" fill="#3838AD"/>
<g opacity="0.6">
<path d="M112.22 84.4419C112.22 84.4419 110.85 89.2121 103.509 92.4262C103.509 92.4262 98.8137 111.972 98.708 115.189C98.708 115.189 100.797 93.6708 101.768 90.9316C101.768 90.9316 109.577 87.5229 112.22 84.4419Z" fill="white"/>
</g>
<g opacity="0.2">
<path d="M125.591 92.9229C125.376 94.9028 124.688 96.7146 123.164 97.9655C120.052 100.525 115.865 100.711 113.277 99.4563C115.138 103.758 115.769 108.922 115.701 114.204C115.672 116.485 115.483 119.684 115.084 123.238H115.081C113.907 124.348 112.416 125.032 110.816 125.432H110.813C114.367 113.456 109.581 96.5219 109.581 96.5219C117.82 100.81 125.59 92.9229 125.59 92.9229H125.591Z" fill="#301A1A"/>
</g>
<g opacity="0.6">
<path d="M121.954 81.3536C123.186 80.5722 123.754 79.798 123.788 79.7504L123.79 79.748C123.9 80.5631 123.985 81.2902 124.084 81.8582C124.442 83.9262 126.042 88.7886 125.591 92.9196" fill="white"/>
</g>
<path d="M106.448 126.815C106.025 126.815 105.593 126.804 105.152 126.783C101.725 126.614 98.9695 125.857 98.8537 125.825C98.5077 125.729 98.252 125.435 98.2044 125.079C97.4725 119.621 97.7498 111.943 99.0281 102.259C99.9772 95.0704 101.156 89.3939 101.168 89.3377C101.22 89.0844 101.38 88.8662 101.605 88.7389L111.551 83.131C111.536 83.02 111.522 82.9066 111.508 82.7903C111.474 82.5063 111.576 82.2228 111.784 82.0272C111.993 81.8316 112.282 81.7465 112.563 81.7989C115.689 82.3799 118.495 82.1175 120.679 81.0401C122.281 80.2505 123.018 79.2826 123.058 79.2293C123.269 78.9241 123.641 78.7847 124.002 78.8708C124.364 78.9568 124.632 79.2624 124.681 79.631C124.708 79.8348 124.734 80.0333 124.759 80.225C124.833 80.8012 124.897 81.2991 124.969 81.7071C125.048 82.1651 125.198 82.7956 125.372 83.5261C125.858 85.5623 126.522 88.3506 126.566 91.1047C126.62 94.5283 125.667 97.0701 123.733 98.6598C122.146 99.9646 120.208 100.785 118.129 101.033C116.981 101.17 115.844 101.124 114.796 100.906C116.058 104.596 116.664 109.062 116.599 114.216C116.566 116.78 116.338 120.105 115.976 123.339C115.949 123.578 115.829 123.787 115.656 123.93C114.391 125.11 112.706 125.939 110.648 126.395C109.384 126.675 107.976 126.817 106.447 126.817L106.448 126.815ZM99.909 124.236C102.12 124.748 110.158 126.29 114.229 122.797C114.564 119.728 114.772 116.609 114.803 114.192C114.876 108.422 114.085 103.584 112.452 99.8127C112.302 99.4682 112.383 99.0674 112.654 98.8074C112.925 98.5479 113.33 98.484 113.667 98.6478C115.934 99.7469 119.728 99.6268 122.594 97.2715C124.104 96.0297 124.816 94.0213 124.771 91.1326C124.73 88.575 124.092 85.8972 123.625 83.9423C123.444 83.1825 123.288 82.5265 123.199 82.0132C123.177 81.8888 123.157 81.759 123.137 81.6235C122.722 81.9407 122.211 82.2775 121.595 82.5909C120.451 83.1733 119.168 83.5664 117.783 83.7601C116.421 83.9504 114.957 83.9466 113.416 83.7505C113.374 84.0172 113.213 84.257 112.969 84.3945L102.845 90.1027C102.565 91.5055 101.604 96.4665 100.807 102.508C99.6154 111.54 99.3068 119.03 99.909 124.237V124.236Z" fill="#301A1A"/>
<path d="M79.7982 125.274C79.7982 125.274 75.6989 127.324 70.5034 126.704H70.501C68.9271 126.516 67.2523 126.085 65.5597 125.274C64.5582 119.121 64.1411 114.204 64.1411 114.204C64.1411 114.204 61.2855 116.146 57.821 118V118.003C54.7228 119.662 51.1396 121.245 48.6767 121.305C48.2211 121.316 47.8035 121.276 47.4353 121.173C46.863 121.013 46.4069 120.705 46.1085 120.214C44.9907 118.371 47.5137 113.927 51.1377 109.069C56.2226 102.253 63.4788 94.6223 65.8812 92.2199C67.9736 90.1231 70.6836 89.5484 72.8385 89.4897C72.863 89.5412 73.2268 90.3408 73.7814 91.8359C75.5302 96.5662 79.1585 108.263 79.7982 125.274Z" fill="#3838AD"/>
<path d="M57.8201 117.999V118.002C53.2561 120.443 47.6368 122.731 46.109 120.213C44.9897 118.37 47.5137 113.927 51.1377 109.068C51.1377 109.068 56.8801 111.674 57.8201 117.999V117.999Z" fill="#FD9800"/>
<g opacity="0.6">
<path d="M73.7816 91.8359L73.5433 91.2049C73.5433 91.2049 68.9317 91.8489 67.3314 93.3934C65.7306 94.9356 45.8415 115.188 47.4356 121.172C46.8632 121.013 46.4072 120.705 46.1087 120.213C44.9909 118.37 47.5139 113.927 51.1379 109.069C56.2229 102.253 63.4791 94.6218 65.8815 92.2194C67.9739 90.1227 70.6838 89.5479 72.8387 89.4893C72.8633 89.5407 73.227 90.3404 73.7816 91.8354V91.8359Z" fill="white"/>
</g>
<path d="M72.5086 127.718C69.9275 127.718 67.4338 127.167 65.1722 126.085C64.9069 125.958 64.7209 125.709 64.6733 125.419C64.0025 121.297 63.5892 117.694 63.3897 115.768C62.233 116.506 60.3852 117.643 58.2971 118.763C58.2798 118.774 58.2615 118.784 58.2433 118.794C55.4093 120.309 52.9896 121.333 51.0515 121.836C49.7741 122.168 48.7202 122.276 47.8302 122.165C46.4101 121.988 45.6926 121.26 45.3408 120.68C44.6401 119.526 44.8674 117.793 46.0357 115.381C46.9296 113.535 48.404 111.231 50.4171 108.532C55.5294 101.681 62.8534 93.9761 65.2443 91.5852C67.1161 89.7114 69.7333 88.6758 72.8123 88.5917C73.1723 88.5811 73.5 88.7859 73.6514 89.1107C73.6673 89.1448 75.246 92.5699 76.9068 98.8347C77.8545 102.411 78.6451 106.21 79.2564 110.129C80.0176 115.011 80.5015 120.095 80.6952 125.241C80.7087 125.594 80.5145 125.921 80.1993 126.078C80.1233 126.116 78.3053 127.015 75.5526 127.467C74.5304 127.635 73.513 127.718 72.5086 127.718V127.718ZM66.3702 124.659C69.0865 125.858 72.055 126.21 75.2008 125.704C76.8828 125.434 78.1933 124.973 78.8762 124.698C78.0626 105.389 73.3746 93.0908 72.2606 90.4174C69.889 90.5918 67.9585 91.4103 66.5154 92.8554C64.15 95.2207 56.9058 102.841 51.8574 109.606C46.1597 117.246 46.6042 119.3 46.8762 119.748C47.4471 120.689 49.2161 120.458 50.6002 120.099C52.3894 119.634 54.6577 118.672 57.3431 117.239C57.3604 117.228 57.3782 117.218 57.3965 117.208C60.7749 115.402 63.6074 113.481 63.6353 113.461C63.8991 113.282 64.2384 113.256 64.5263 113.393C64.8141 113.53 65.0083 113.81 65.0352 114.128C65.0391 114.176 65.4408 118.833 66.3702 124.66V124.659Z" fill="#301A1A"/>
<path d="M72.8381 89.4893C72.8381 89.4893 78.3744 101.762 83.3305 103.555L88.117 98.7105L93.2424 103.555C93.2424 103.555 99.189 98.4957 102.047 89.7324C102.047 89.7324 98.3821 92.8119 94.7826 95.1821C91.7329 97.1909 88.1161 98.7105 88.1161 98.7105C88.1161 98.7105 77.741 95.669 72.8386 89.4893H72.8381Z" fill="white"/>
<path d="M83.3301 104.453C83.2277 104.453 83.1244 104.435 83.0249 104.399C80.7725 103.584 78.2269 100.865 75.4588 96.3166C73.4495 93.015 72.077 89.986 72.0198 89.8586C71.8333 89.4453 71.9842 88.958 72.3711 88.7225C72.7584 88.4866 73.2601 88.5764 73.5417 88.9311C75.9619 91.9818 79.844 94.2381 82.6751 95.5938C85.1611 96.7846 87.2958 97.5079 88.0642 97.754C88.9788 97.3508 91.842 96.0436 94.2886 94.4322C97.8007 92.1192 101.433 89.0753 101.47 89.045C101.777 88.7874 102.218 88.7639 102.55 88.9883C102.882 89.2127 103.025 89.6298 102.901 90.0109C101.384 94.6615 99.0074 98.2725 97.2802 100.483C95.4016 102.887 93.8873 104.185 93.8239 104.239C93.475 104.536 92.9584 104.522 92.6253 104.208L88.1382 99.967L83.9692 104.186C83.7977 104.36 83.5665 104.453 83.3301 104.453V104.453ZM76.0321 93.7421C76.3348 94.2789 76.6597 94.8359 77.0019 95.3982C79.2841 99.1457 81.3876 101.576 83.1258 102.484L86.4605 99.1092C85.3754 98.7252 83.7539 98.1005 81.9278 97.2277C79.67 96.1484 77.7006 94.9839 76.0321 93.7426V93.7421ZM89.7102 98.9809L93.2467 102.324C93.8335 101.751 94.8048 100.738 95.8971 99.3355C97.1221 97.7621 98.6945 95.4405 100.007 92.5191C98.6719 93.5528 96.9745 94.8138 95.2762 95.9326C93.2703 97.2537 91.0548 98.3552 89.7102 98.9813V98.9809Z" fill="#301A1A"/>
<path d="M102.047 89.5211C98.199 94.1514 88.1166 98.7106 88.1166 98.7106C79.299 96.6071 72.8381 89.4894 72.8381 89.4894C74.9147 89.4278 76.477 89.846 76.477 89.846L89.9201 89.4817C89.9201 89.4817 98.0198 88.8492 102.047 89.5211Z" fill="white"/>
<path d="M88.1161 99.6089C88.0464 99.6089 87.9762 99.6007 87.9075 99.5844C83.2022 98.4618 79.1779 95.9441 76.6304 94.0294C73.8767 91.9596 72.2408 90.1685 72.1721 90.0935C71.9366 89.834 71.8736 89.4611 72.0106 89.1386C72.1476 88.8162 72.4599 88.6028 72.8103 88.5922C74.6643 88.5379 76.1306 88.8412 76.5727 88.9455L89.8721 88.585C90.4478 88.5408 98.1731 87.9651 102.194 88.6355C102.503 88.6869 102.763 88.8964 102.879 89.1877C102.996 89.4789 102.952 89.8095 102.764 90.0604C101.079 92.3051 98.15 94.5859 94.0598 96.8398C91.0481 98.4988 88.5539 99.5027 88.4496 99.5445C88.3429 99.5873 88.2295 99.6089 88.1161 99.6089ZM75.1843 90.5164C75.861 91.1249 76.7246 91.8548 77.7429 92.6185C80.0958 94.3827 83.7736 96.6894 88.0445 97.7683C89.4819 97.1628 96.4714 94.0977 100.259 90.2185C96.1407 89.9056 90.0591 90.3718 89.9894 90.3771C89.974 90.378 89.9591 90.379 89.9437 90.3795L76.5006 90.7438C76.4141 90.7462 76.3276 90.7361 76.244 90.7135C76.2373 90.7116 75.8365 90.6078 75.1843 90.5164Z" fill="#301A1A"/>
<path d="M88.1154 93.4847C107.472 93.4847 123.163 78.8619 123.163 60.8239C123.163 42.7858 107.472 28.1631 88.1154 28.1631C68.7593 28.1631 53.0681 42.7858 53.0681 60.8239C53.0681 78.8619 68.7593 93.4847 88.1154 93.4847Z" fill="#FD9800"/>
<g opacity="0.2">
<path d="M88.1154 86.6378C69.9834 86.6378 55.0678 73.806 53.2536 57.355C53.1311 58.4656 53.0681 59.5921 53.0681 60.7329C53.0681 78.7708 68.7593 93.3937 88.1154 93.3937C107.472 93.3937 123.163 78.7708 123.163 60.7329C123.163 59.5925 123.099 58.4656 122.977 57.355C121.164 73.806 106.248 86.6378 88.1154 86.6378Z" fill="#301A1A"/>
</g>
<g opacity="0.6">
<path d="M92.388 30.9676C92.4125 31.0349 92.424 31.1046 92.424 31.1762C92.424 32.0763 90.4955 32.8063 88.1157 32.8063C85.7359 32.8063 83.8049 32.0768 83.8049 31.1762C83.8049 31.1046 83.816 31.0349 83.841 30.9676C70.458 32.3911 59.311 40.4147 54.5 51.3348C58.7858 37.8105 72.2135 27.9434 88.1157 27.9434C104.018 27.9434 117.443 37.8105 121.729 51.3348C116.918 40.4123 105.771 32.3911 92.388 30.9676Z" fill="white"/>
</g>
<path d="M88.1152 94.3831C83.2705 94.3831 78.57 93.4984 74.1439 91.7539C69.8654 90.0676 66.0222 87.6527 62.7207 84.576C59.4148 81.4956 56.8188 77.9062 55.0041 73.9087C53.1231 69.7647 52.1697 65.3627 52.1697 60.8246C52.1697 56.2866 53.1231 51.8845 55.0041 47.7405C56.8183 43.7426 59.4148 40.1537 62.7207 37.0732C66.0222 33.9966 69.8654 31.5817 74.1439 29.8953C78.57 28.1509 83.2705 27.2661 88.1152 27.2661C92.9599 27.2661 97.6604 28.1509 102.086 29.8953C106.365 31.5817 110.208 33.9966 113.51 37.0732C116.816 40.1537 119.412 43.7431 121.226 47.7405C123.107 51.8845 124.061 56.2866 124.061 60.8246C124.061 65.3627 123.107 69.7647 121.226 73.9087C119.412 77.9066 116.816 81.4956 113.51 84.576C110.208 87.6527 106.365 90.0676 102.086 91.7539C97.6604 93.4984 92.9599 94.3831 88.1152 94.3831ZM88.1152 29.0615C69.2853 29.0615 53.9661 43.3101 53.9661 60.8241C53.9661 78.3382 69.2853 92.5867 88.1152 92.5867C106.945 92.5867 122.264 78.3382 122.264 60.8241C122.264 43.3101 106.945 29.0615 88.1152 29.0615Z" fill="#301A1A"/>
<path d="M130.031 52.5881L129.185 55.8569C129.185 55.8569 129.181 55.8771 129.169 55.9151L123.424 78.1056C123.132 79.235 121.98 79.9106 120.853 79.6189L113.279 77.6591H113.276L112.221 77.3852L111.233 77.1291C110.103 76.8374 109.428 75.6878 109.719 74.5585L116.327 49.0385C116.619 47.9116 117.768 47.2335 118.897 47.5252L119.874 47.779L128.518 50.0194C129.645 50.3092 130.323 51.4606 130.031 52.5876L130.031 52.5881Z" fill="#CED2D6"/>
<path d="M119.874 47.7793L112.22 77.3846L111.233 77.1289C110.104 76.8363 109.427 75.6872 109.72 74.5579L116.326 49.0394C116.618 47.9124 117.767 47.2334 118.897 47.526L119.873 47.7793H119.874Z" fill="#939699"/>
<g opacity="0.6">
<path d="M110.629 76.4108L117.629 49.8259C117.922 48.6989 119.213 49.1814 120.343 49.4741L121.319 49.7274L129.962 51.9664C130.009 51.9784 130.053 51.9938 130.098 52.0087C130.095 51.0739 129.466 50.2209 128.519 49.9768L119.876 47.7378L118.9 47.4845C117.77 47.1919 116.621 47.8709 116.329 48.9974L109.723 74.5159C109.442 75.5986 109.517 76.6025 110.564 76.9495C110.563 76.7717 110.582 76.591 110.629 76.4103L110.629 76.4108Z" fill="white"/>
</g>
<path d="M121.388 80.5855C121.135 80.5855 120.879 80.5533 120.628 80.4874L111.995 78.2537L111.008 77.9976C110.23 77.7958 109.577 77.3036 109.17 76.6121C108.762 75.9201 108.649 75.1103 108.851 74.3318L115.457 48.8138C115.874 47.2082 117.519 46.2408 119.123 46.6565L120.1 46.9097L128.742 49.1487C129.519 49.3491 130.172 49.8407 130.58 50.5337C130.988 51.2262 131.101 52.0355 130.899 52.8126L124.293 78.3302C124.091 79.1087 123.599 79.7618 122.906 80.1688C122.438 80.4442 121.917 80.585 121.388 80.585L121.388 80.5855ZM118.369 48.3567C117.831 48.3567 117.338 48.7196 117.196 49.265L110.59 74.7825C110.509 75.0968 110.554 75.4227 110.718 75.7014C110.881 75.9797 111.145 76.1781 111.459 76.2594L112.445 76.5155L121.078 78.7492C121.391 78.8309 121.717 78.7853 121.996 78.6214C122.274 78.457 122.473 78.1942 122.555 77.8803L129.161 52.3623C129.161 52.3623 129.161 52.3618 129.161 52.3614C129.242 52.049 129.196 51.7241 129.032 51.4454C128.868 51.1666 128.606 50.9687 128.293 50.8884L119.649 48.6494L118.672 48.3961C118.57 48.3697 118.469 48.3572 118.368 48.3572L118.369 48.3567Z" fill="#301A1A"/>
<path d="M112.22 78.2826C112.145 78.2826 112.069 78.273 111.995 78.2537L111.008 77.9976C110.23 77.7958 109.577 77.3036 109.17 76.6121C108.763 75.9201 108.65 75.1103 108.852 74.3318L115.458 48.8138C115.875 47.2082 117.519 46.2408 119.123 46.6565L120.1 46.9097C120.58 47.0342 120.868 47.5239 120.744 48.004L113.09 77.6093C113.031 77.84 112.882 78.0375 112.677 78.1586C112.537 78.2408 112.38 78.2826 112.221 78.2826H112.22ZM118.369 48.3567C117.831 48.3567 117.338 48.7196 117.196 49.265L110.59 74.7825C110.509 75.0968 110.554 75.4227 110.718 75.7014C110.882 75.9797 111.145 76.1781 111.459 76.2594L111.576 76.2896L118.78 48.4235L118.672 48.3957C118.571 48.3692 118.469 48.3567 118.369 48.3567H118.369Z" fill="#301A1A"/>
<g opacity="0.2">
<path d="M130.097 52.0088L123.424 78.1059C123.133 79.2352 121.981 79.9109 120.854 79.6192L110.85 77.385C125.671 70.5854 129.752 53.2035 130.098 52.0088H130.097Z" fill="#301A1A"/>
</g>
<path d="M122.196 51.5132C122.317 51.0376 122.104 50.5731 121.721 50.4759C121.338 50.3787 120.93 50.6855 120.809 51.1612C120.688 51.6369 120.901 52.1013 121.284 52.1985C121.667 52.2957 122.075 51.9889 122.196 51.5132Z" fill="#301A1A"/>
<path d="M123.794 60.4891C123.426 60.3958 123.222 59.9494 123.337 59.4923C123.404 59.2295 123.564 59.0233 123.756 58.9109C123.628 58.8061 123.481 58.7273 123.316 58.6855C122.58 58.4985 121.795 59.0882 121.563 60.0022C121.331 60.9163 121.74 61.8087 122.476 61.9957C123.212 62.1826 123.997 61.5929 124.229 60.6789C124.253 60.5837 124.269 60.4891 124.28 60.3953C124.131 60.491 123.961 60.5313 123.794 60.4891H123.794Z" fill="#301A1A"/>
<path d="M48.5385 122.206C48.2915 122.206 48.0556 122.192 47.8302 122.164C46.4101 121.987 45.6926 121.259 45.3408 120.679C44.6401 119.526 44.8674 117.792 46.0357 115.38C46.9296 113.535 48.404 111.23 50.4171 108.531C50.6694 108.193 51.1235 108.076 51.508 108.25C51.5719 108.279 53.0953 108.979 54.7365 110.503C56.9197 112.53 58.2927 115.077 58.7075 117.867C58.7142 117.911 58.7171 117.955 58.7171 117.999V118.002C58.7171 118.333 58.5345 118.637 58.2428 118.794C55.4088 120.309 52.9891 121.332 51.051 121.836C50.097 122.084 49.2676 122.207 48.5381 122.207L48.5385 122.206ZM51.397 110.229C46.1842 117.358 46.6119 119.312 46.8762 119.748C47.4471 120.688 49.2161 120.457 50.6002 120.098C52.2721 119.664 54.3631 118.795 56.8208 117.514C55.9423 113.341 52.7628 111.043 51.397 110.229V110.229Z" fill="#301A1A"/>
<path d="M92.8039 117.827L89.5937 121.628C88.8214 122.542 87.4114 122.542 86.6367 121.628L83.4265 117.827C82.9214 117.23 82.8272 116.386 83.1862 115.69L86.4147 109.444L87.4297 107.479L87.4431 107.455L84.4525 102.48L84.4299 102.442L88.1164 98.7109L91.4617 102.099L91.8005 102.443L88.8911 107.287L88.7902 107.455L91.5717 112.841L93.0447 115.69C93.4061 116.386 93.3095 117.23 92.8044 117.827H92.8039Z" fill="#EC1C24"/>
<g opacity="0.6">
<path d="M87.858 100.319C87.8248 100.319 87.7893 100.323 87.7643 100.344C87.7239 100.378 87.7282 100.441 87.7388 100.494C87.8517 101.05 88.2554 101.495 88.6428 101.91C88.7379 102.012 88.8345 102.115 88.9523 102.19C89.0368 102.245 89.1306 102.283 89.2161 102.336C89.3978 102.449 89.5386 102.627 89.7366 102.708C89.8274 102.745 89.9398 102.757 90.0162 102.695C90.0903 102.636 90.1052 102.525 90.0763 102.434C90.0475 102.344 89.9845 102.269 89.9221 102.197C89.4871 101.696 88.5913 100.324 87.8575 100.319H87.858Z" fill="white"/>
</g>
<g opacity="0.6">
<path d="M87.7955 109.506C87.8157 110.12 88.0536 110.704 88.2876 111.271C88.5034 111.794 88.7192 112.318 88.9349 112.841C89.3506 113.849 89.7745 114.872 90.4502 115.728C90.5463 115.851 90.666 115.978 90.8212 115.985C91.1019 115.997 91.2273 115.634 91.2254 115.353C91.2191 114.4 90.7722 113.512 90.3353 112.664C89.8639 111.749 89.3925 110.834 88.921 109.919C88.7999 109.684 88.6197 109.055 88.3506 108.941C87.9541 108.774 87.7844 109.187 87.795 109.507L87.7955 109.506Z" fill="white"/>
</g>
<g opacity="0.2">
<path d="M91.8001 102.442L88.8907 107.286C88.4193 107.466 87.9142 107.544 87.4293 107.48L87.4428 107.455L84.4521 102.48C84.6968 102.299 85.0783 102.202 85.6377 102.233C86.7829 102.296 87.7864 102.806 88.9941 102.718C89.8452 102.655 90.6847 102.451 91.4613 102.099L91.8001 102.442V102.442Z" fill="#301A1A"/>
</g>
<g opacity="0.2">
<path d="M92.8039 117.827L89.5937 121.628C88.8214 122.542 87.4114 122.542 86.6367 121.628L83.4265 117.827C82.9214 117.23 82.8272 116.386 83.1862 115.69L86.4147 109.444C86.1879 110.129 85.9591 110.814 85.7323 111.499C85.3954 112.516 85.0542 113.555 85.0518 114.628C85.0518 115.701 85.4492 116.831 86.3268 117.448C86.7823 117.769 87.3369 117.931 87.8939 117.996C89.1199 118.14 90.4957 117.749 91.156 116.707C91.5693 116.058 91.6501 115.254 91.6568 114.487C91.6611 113.937 91.6342 113.387 91.5713 112.842L93.0442 115.69C93.4056 116.386 93.309 117.231 92.8039 117.827Z" fill="#301A1A"/>
</g>
<path d="M88.1155 123.213C87.2798 123.213 86.4907 122.847 85.9515 122.208L82.7413 118.408C81.9988 117.53 81.8604 116.301 82.3885 115.279L86.4148 107.489L83.6606 102.904C83.4496 102.552 83.5035 102.102 83.7918 101.81L87.4769 98.0797C87.6455 97.9091 87.8757 97.813 88.1155 97.813C88.3554 97.813 88.5855 97.9091 88.7542 98.0797L92.4393 101.81C92.7276 102.102 92.7814 102.552 92.5705 102.904L89.8163 107.489L93.8425 115.279C94.3707 116.301 94.2323 117.53 93.4898 118.408L90.2796 122.208C89.7399 122.847 88.9513 123.213 88.1155 123.213ZM88.1155 108.11L83.984 116.104C83.7909 116.478 83.8413 116.927 84.1133 117.249L87.3236 121.049C87.524 121.286 87.8051 121.416 88.116 121.416C88.427 121.416 88.7081 121.286 88.9085 121.049L92.1187 117.249C92.3907 116.927 92.4412 116.478 92.248 116.104L88.1165 108.11H88.1155ZM85.5594 102.576L88.1155 106.832L90.6717 102.576L88.1155 99.9885L85.5594 102.576Z" fill="#301A1A"/>
<path d="M98.777 54.0729C98.5627 54.0729 98.3479 53.9965 98.1758 53.8417C97.8072 53.5101 97.7784 52.9406 98.11 52.572C98.1855 52.4879 99.9876 50.5176 102.468 50.5176C103.958 50.5176 105.335 51.2086 106.562 52.572C106.894 52.9406 106.864 53.5087 106.496 53.8403C106.127 54.1719 105.559 54.1421 105.227 53.7735C104.358 52.808 103.434 52.3168 102.478 52.3135C102.475 52.3135 102.471 52.3135 102.468 52.3135C100.798 52.3135 99.4561 53.7615 99.4426 53.7759C99.2658 53.9724 99.0217 54.0724 98.7766 54.0724L98.777 54.0729Z" fill="#301A1A"/>
<path d="M77.9829 54.0714C77.7383 54.0714 77.4941 53.972 77.3173 53.7764C77.2937 53.7509 75.9558 52.314 74.2921 52.314C74.2887 52.314 74.2849 52.314 74.2815 52.314C73.3266 52.3173 72.4015 52.8085 71.5326 53.774C71.201 54.1426 70.633 54.1724 70.2644 53.8408C69.8958 53.5092 69.866 52.9411 70.1976 52.5725C71.4245 51.2091 72.8023 50.5181 74.2921 50.5181C76.7723 50.5181 78.5745 52.4889 78.6499 52.5725C78.9815 52.9411 78.9517 53.5092 78.5831 53.8408C78.4116 53.995 78.1967 54.0714 77.9824 54.0714H77.9829Z" fill="#301A1A"/>
<path d="M94.9387 67.8875C94.771 67.8875 94.6037 67.8827 94.4418 67.8726C92.7329 67.7861 91.1109 67.2417 89.8744 66.3391C89.328 65.9403 88.871 65.4828 88.5125 64.9839C88.1559 65.4775 87.7017 65.9302 87.1606 66.3252C85.9231 67.2292 84.2993 67.7751 82.5889 67.8621C82.5875 67.8621 82.5855 67.8621 82.5841 67.8621C82.4039 67.8702 82.2438 67.8741 82.0944 67.8741C80.2807 67.8741 78.542 67.3671 77.1983 66.4463C75.7907 65.4818 74.9319 64.1525 74.7791 62.7017C74.7603 62.5522 74.7507 62.3936 74.7507 62.2302C74.7507 61.7343 75.153 61.332 75.6489 61.332C76.1449 61.332 76.5471 61.7343 76.5471 62.2302C76.5471 62.3211 76.5524 62.4061 76.562 62.483C76.563 62.4912 76.5639 62.4989 76.5649 62.507C76.6596 63.4288 77.2449 64.3015 78.2138 64.9652C79.2614 65.6832 80.6397 66.0787 82.0949 66.0787C82.216 66.0787 82.3491 66.0753 82.501 66.0686C85.2224 65.9292 87.4249 64.4005 87.6248 62.5114C87.6748 62.0366 88.0867 61.6843 88.5653 61.7088C89.0252 61.7328 89.389 62.1 89.4145 62.5546C89.6332 64.4313 91.8275 65.9441 94.5369 66.0801C94.5403 66.0801 94.5437 66.0801 94.547 66.0806C94.6744 66.0883 94.8061 66.0926 94.9387 66.0926C96.3953 66.0926 97.7746 65.6966 98.8227 64.9772C99.7915 64.3126 100.377 63.4379 100.471 62.5152C100.471 62.5118 100.471 62.5085 100.472 62.5051C100.481 62.4201 100.486 62.3321 100.486 62.2446C100.486 61.7487 100.888 61.3465 101.384 61.3465C101.88 61.3465 102.282 61.7487 102.282 62.2446C102.282 62.3975 102.274 62.5512 102.257 62.7017C102.107 64.1568 101.249 65.4909 99.8386 66.4583C98.4945 67.381 96.7538 67.889 94.9382 67.889L94.9387 67.8875Z" fill="#301A1A"/>
<g opacity="0.2">
<path d="M101.364 62.6051C101.115 65.0565 98.3334 66.9898 94.9391 66.9898C94.7886 66.9898 94.6382 66.9855 94.4921 66.9764C91.3107 66.8168 88.7627 64.956 88.5181 62.6166V62.6056C88.2711 64.9407 85.725 66.8039 82.5441 66.9653C82.3961 66.9721 82.2456 66.9764 82.0952 66.9764C78.7053 66.9764 75.9237 65.0478 75.6719 62.5983C81.5829 67.5531 88.5364 62.5806 88.5364 62.5806C94.3465 67.4233 101.365 62.6051 101.365 62.6051H101.364Z" fill="#301A1A"/>
</g>
<path d="M94.5258 67.7841C94.5258 69.5089 94.0707 71.0982 93.3056 72.3727C92.2084 74.1959 90.4712 75.3743 88.5176 75.3743C86.5641 75.3743 84.9282 74.2647 83.8258 72.5303C82.9992 71.2313 82.5071 69.5805 82.5071 67.7841C82.5071 67.5088 82.5196 67.2329 82.5441 66.9647C85.7255 66.8023 88.2716 64.9401 88.5176 62.605V62.6175C88.7637 64.955 91.3102 66.8172 94.4912 66.9772C94.5133 67.243 94.5258 67.5112 94.5258 67.7841Z" fill="#301A1A"/>
<path d="M93.3051 72.3729C92.208 74.1962 90.4707 75.3745 88.5172 75.3745C86.5636 75.3745 84.9278 74.2649 83.8253 72.5305C84.4159 71.1676 86.3325 70.1685 88.6032 70.1685C90.8739 70.1685 92.6381 71.0912 93.3046 72.3729H93.3051Z" fill="#F4536E"/>
<path d="M88.5179 76.2726C86.6316 76.2726 84.8718 75.3624 83.5632 73.7092C82.3031 72.118 81.6096 70.0141 81.6096 67.7847C81.6096 67.481 81.6236 67.1777 81.6505 66.8836C81.6913 66.4386 82.0527 66.0916 82.4992 66.0685C85.2226 65.9297 87.4265 64.4005 87.6254 62.5118C87.6754 62.037 88.0882 61.6843 88.5655 61.7093C89.0258 61.7333 89.3901 62.1014 89.4151 62.5565C89.6357 64.4327 91.8295 65.945 94.5371 66.081C94.9864 66.1036 95.3497 66.4549 95.3867 66.9033C95.4122 67.2065 95.4242 67.4949 95.4242 67.7847C95.4242 70.0136 94.7307 72.118 93.4707 73.7092C92.1621 75.3624 90.4032 76.2726 88.5179 76.2726ZM83.4055 67.7852C83.4055 71.475 85.6993 74.4767 88.5179 74.4767C91.3364 74.4767 93.6225 71.4817 93.6278 67.7977C92.2226 67.6035 90.9126 67.0979 89.8741 66.3396C89.3281 65.9407 88.8706 65.4832 88.5126 64.9844C88.156 65.4774 87.7019 65.9301 87.1612 66.3252C86.1222 67.084 84.8112 67.5905 83.405 67.7852H83.4055Z" fill="#301A1A"/>
<g opacity="0.2">
<path d="M79.3148 63.5721H70.7298C69.6937 63.5721 68.8536 62.7321 68.8536 61.696C68.8536 60.6599 69.6937 59.8198 70.7298 59.8198H79.3148C80.3509 59.8198 81.1909 60.6599 81.1909 61.696C81.1909 62.7321 80.3509 63.5721 79.3148 63.5721Z" fill="#301A1A"/>
</g>
<g opacity="0.2">
<path d="M106.64 63.5721H98.0552C97.0191 63.5721 96.1791 62.7321 96.1791 61.696C96.1791 60.6599 97.0191 59.8198 98.0552 59.8198H106.64C107.676 59.8198 108.516 60.6599 108.516 61.696C108.516 62.7321 107.676 63.5721 106.64 63.5721Z" fill="#301A1A"/>
</g>
<path d="M70.2531 56.4126H79.7915C80.5638 56.4126 81.1905 57.0397 81.1905 57.8115V59.8199C81.1905 60.5922 80.5633 61.2188 79.7915 61.2188H70.2531C69.4808 61.2188 68.8541 60.5917 68.8541 59.8199V57.8115C68.8541 57.0393 69.4813 56.4126 70.2531 56.4126Z" fill="#01D3EC"/>
<g opacity="0.4">
<path d="M74.878 56.2139L71.9167 61.0206H70.0982C69.9521 61.0206 69.8109 60.998 69.6782 60.9576L72.6016 56.2139H74.878Z" fill="white"/>
</g>
<g opacity="0.4">
<path d="M80.3657 56.2182L77.4044 61.0206H73.5045L76.4658 56.2139H80.2845C80.3114 56.2139 80.3383 56.2139 80.3652 56.2182H80.3657Z" fill="white"/>
</g>
<path d="M108.504 57.8115V59.8208C108.504 60.5931 107.878 61.2193 107.106 61.2193H97.5686C97.4225 61.2193 97.2812 61.1967 97.1486 61.1563C96.5805 60.9766 96.1672 60.447 96.1672 59.8204V57.8111C96.1672 57.0388 96.7934 56.4126 97.5681 56.4126H107.105C107.132 56.4126 107.159 56.4126 107.186 56.4169C107.92 56.4573 108.504 57.0657 108.504 57.8111L108.504 57.8115Z" fill="#01D3EC"/>
<g opacity="0.4">
<path d="M102.348 56.4131L99.3862 61.2198H97.5677C97.4216 61.2198 97.2803 61.1972 97.1477 61.1568L100.071 56.4131H102.348Z" fill="white"/>
</g>
<g opacity="0.4">
<path d="M107.836 56.4174L104.874 61.2198H100.974L103.936 56.4131H107.754C107.781 56.4131 107.808 56.4131 107.835 56.4174H107.836Z" fill="white"/>
</g>
<path d="M107.106 61.9403H97.5672C96.3984 61.9403 95.4474 60.9893 95.4474 59.82V57.8117C95.4474 56.6425 96.3984 55.6919 97.5672 55.6919H107.106C108.274 55.6919 109.225 56.643 109.225 57.8117V59.82C109.225 60.9893 108.274 61.9403 107.106 61.9403ZM97.5672 57.1341C97.1933 57.1341 96.8891 57.4383 96.8891 57.8122V59.8205C96.8891 60.1944 97.1933 60.4991 97.5672 60.4991H107.106C107.48 60.4991 107.784 60.1949 107.784 59.8205V57.8122C107.784 57.4383 107.48 57.1341 107.106 57.1341H97.5672Z" fill="#301A1A"/>
<path d="M79.7916 61.9403H70.2531C69.0844 61.9403 68.1333 60.9893 68.1333 59.82V57.8117C68.1333 56.6425 69.0844 55.6919 70.2531 55.6919H79.7916C80.9603 55.6919 81.9114 56.643 81.9114 57.8117V59.82C81.9114 60.9893 80.9603 61.9403 79.7916 61.9403ZM70.2531 57.1341C69.8792 57.1341 69.575 57.4383 69.575 57.8122V59.8205C69.575 60.1944 69.8792 60.4991 70.2531 60.4991H79.7916C80.1654 60.4991 80.4696 60.1949 80.4696 59.8205V57.8122C80.4696 57.4383 80.1654 57.1341 79.7916 57.1341H70.2531Z" fill="#301A1A"/>
<path d="M96.1686 59.4896C95.9293 59.4896 95.6976 59.3618 95.5761 59.1369C95.5717 59.1287 95.0234 58.144 93.8743 57.179C92.3576 55.9046 90.555 55.2587 88.5164 55.2587C86.4778 55.2587 84.7463 55.8988 83.3392 57.1608C82.2738 58.1162 81.8047 59.0922 81.8004 59.1018C81.6418 59.4373 81.241 59.5819 80.9051 59.4243C80.5692 59.2667 80.4235 58.8678 80.5802 58.5314C80.6028 58.4833 81.1435 57.3376 82.391 56.202C83.5386 55.1568 85.5335 53.9111 88.5164 53.9111C91.4993 53.9111 93.5677 55.1486 94.7879 56.1871C96.1114 57.3131 96.7342 58.4468 96.7602 58.4944C96.9375 58.8212 96.8159 59.2301 96.4891 59.4075C96.3873 59.4627 96.2772 59.4892 96.1686 59.4892V59.4896Z" fill="#301A1A"/>
<path d="M64.1395 115.101C63.6705 115.101 63.2759 114.737 63.2442 114.263C63.2283 114.026 62.8693 108.389 63.6964 102.649C63.7671 102.158 64.2226 101.817 64.7133 101.888C65.204 101.959 65.5447 102.415 65.4741 102.905C64.6744 108.453 65.0324 114.088 65.0363 114.144C65.0689 114.639 64.6941 115.067 64.1996 115.1C64.1794 115.101 64.1592 115.102 64.1395 115.102V115.101Z" fill="#301A1A"/>
<path d="M57.2871 62.1533C57.2371 62.1533 57.1861 62.149 57.1352 62.1404L49.4917 60.8404C49.0029 60.7573 48.6737 60.2935 48.7569 59.8043C48.84 59.3155 49.3038 58.9863 49.793 59.0695L57.4365 60.3694C57.9253 60.4526 58.2545 60.9163 58.1713 61.4056C58.0968 61.8434 57.7167 62.1533 57.2871 62.1533Z" fill="#301A1A"/>
<path d="M54.3822 82.4024C54.0881 82.4024 53.8003 82.2583 53.6282 81.9935C53.3581 81.5773 53.4764 81.0213 53.8925 80.7512L60.5725 76.415C60.9887 76.1449 61.5447 76.2631 61.8148 76.6793C62.0849 77.0955 61.9667 77.6515 61.5505 77.9216L54.8705 82.2578C54.7196 82.3558 54.55 82.4024 54.3822 82.4024Z" fill="#301A1A"/>
<path d="M50.5277 72.25C50.1437 72.25 49.7881 72.0016 49.6694 71.6152C49.5238 71.1409 49.7905 70.6387 50.2644 70.4931L57.9713 68.1282C58.4457 67.9825 58.9479 68.2493 59.0935 68.7231C59.2391 69.1974 58.9724 69.6996 58.4985 69.8452L50.7916 72.2102C50.7036 72.2371 50.6152 72.25 50.5277 72.25Z" fill="#301A1A"/>
<path d="M91.765 59.3815C91.765 60.4744 90.3194 61.6763 88.5365 61.6763C86.7536 61.6763 85.308 60.4744 85.308 59.3815C85.308 58.2887 86.7536 57.7183 88.5365 57.7183C90.3194 57.7183 91.765 58.2887 91.765 59.3815Z" fill="#301A1A"/>
<path d="M88.5365 62.5742C87.5076 62.5742 86.5056 62.2489 85.7155 61.6578C84.8856 61.0369 84.4098 60.2074 84.4098 59.3813C84.4098 58.8748 84.5991 57.9352 85.8664 57.3297C86.5637 56.9962 87.4874 56.8203 88.5365 56.8203C89.5856 56.8203 90.5092 56.9967 91.2066 57.3297C92.4738 57.9352 92.6632 58.8752 92.6632 59.3813C92.6632 60.2074 92.1874 61.0369 91.3575 61.6578C90.5674 62.2489 89.5659 62.5742 88.5365 62.5742ZM88.5365 58.6162C87.7647 58.6162 87.0914 58.7349 86.6406 58.9502C86.4421 59.0449 86.2057 59.1968 86.2057 59.3813C86.2057 59.872 87.1668 60.7778 88.536 60.7778C89.9052 60.7778 90.8663 59.8715 90.8663 59.3813C90.8663 59.1968 90.6299 59.0449 90.4314 58.9502C89.9806 58.7349 89.3073 58.6162 88.5355 58.6162H88.5365Z" fill="#301A1A"/>
<path d="M88.5818 59.2597C89.6605 59.2597 90.5349 58.972 90.5349 58.6171C90.5349 58.2623 89.6605 57.9746 88.5818 57.9746C87.5032 57.9746 86.6288 58.2623 86.6288 58.6171C86.6288 58.972 87.5032 59.2597 88.5818 59.2597Z" fill="white"/>
<g opacity="0.2">
<path d="M70.5007 126.704C68.9268 126.516 67.252 126.085 65.5594 125.274C64.5579 119.12 64.1408 114.204 64.1408 114.204C64.1408 114.204 61.2852 116.146 57.8208 118V118.003C54.7225 119.662 51.1393 121.245 48.6764 121.305C48.6764 121.305 60.7821 113.674 64.5848 105.071C64.5848 105.071 67.2251 125.086 70.5007 126.704Z" fill="#301A1A"/>
</g>
<path d="M114.646 92.5378C114.277 92.5378 113.931 92.3086 113.8 91.941C112.645 88.7005 111.846 85.0005 111.512 82.8168C111.437 82.3266 111.774 81.8681 112.264 81.7936C112.755 81.7187 113.213 82.0556 113.288 82.5457C113.609 84.6507 114.38 88.2165 115.492 91.3378C115.659 91.805 115.415 92.3187 114.948 92.4855C114.848 92.521 114.746 92.5378 114.646 92.5378H114.646Z" fill="#301A1A"/>
<path d="M113.275 100.354C113.144 100.354 113.011 100.325 112.885 100.264C111.32 99.5077 110.321 98.6926 110.279 98.6585C109.896 98.3437 109.841 97.7776 110.156 97.3946C110.471 97.0116 111.037 96.9563 111.42 97.2711C111.428 97.2773 112.307 97.99 113.667 98.6475C114.113 98.8632 114.3 99.4 114.084 99.847C113.929 100.168 113.609 100.354 113.275 100.354V100.354Z" fill="#301A1A"/>
<path d="M123.79 79.7486L123.788 79.751C123.177 80.3527 122.553 80.8534 121.929 81.2686C121.276 81.7021 120.622 82.0433 119.983 82.3081C119.978 82.3105 119.974 82.3124 119.972 82.3124C115.96 83.9714 112.401 82.6806 112.401 82.6806C111.876 78.3429 112.538 75.2965 113.775 73.2983C115.27 70.8849 117.608 70.0049 119.707 70.2337C123.301 70.6268 123.328 76.1765 123.791 79.7481L123.79 79.7486Z" fill="#FD9800"/>
<g opacity="0.6">
<path d="M123.791 79.7486L123.788 79.751C123.177 80.3527 122.554 80.8534 121.929 81.2686C121.265 78.9676 120.701 76.819 120.443 75.3753C119.576 70.5417 113.775 73.2988 113.775 73.2988C115.27 70.8853 117.607 70.0054 119.707 70.2342C123.301 70.6273 123.328 76.1769 123.791 79.7486Z" fill="white"/>
</g>
<path d="M115.659 84.0582C113.587 84.0582 112.158 83.5488 112.094 83.5257C111.776 83.4104 111.549 83.1254 111.508 82.789C110.731 76.3493 112.508 73.0357 114.135 71.3897C115.647 69.8606 117.714 69.1142 119.804 69.342C121.539 69.5309 122.795 70.6795 123.537 72.7555C124.117 74.378 124.326 76.3618 124.51 78.1125C124.567 78.6512 124.62 79.1602 124.681 79.6335C124.718 79.9123 124.621 80.1919 124.421 80.389C121.505 83.2566 118.321 83.9616 116.163 84.0481C115.991 84.0548 115.823 84.0582 115.659 84.0582ZM113.227 81.983C113.82 82.1248 114.875 82.3113 116.164 82.2502C118.675 82.1325 120.92 81.1771 122.845 79.4096C122.803 79.0535 122.764 78.6844 122.724 78.3004C122.313 74.3837 121.822 71.3681 119.61 71.1278C118.066 70.9596 116.537 71.5157 115.413 72.6527C114.111 73.9695 112.703 76.6501 113.227 81.983Z" fill="#301A1A"/>
</svg>
